<?xml version="1.0" encoding="UTF-8"?>
<svg id="Layer_2" data-name="Layer 2" xmlns="http://www.w3.org/2000/svg" viewBox="0 0 124.95 19.29">
  <defs>
    <style>
      .cls-1 {
        fill: #fff;
        stroke-width: 0px;
      }
    </style>
  </defs>
  <g id="Layer_1-2" data-name="Layer 1">
    <g>
      <g>
        <path class="cls-1" d="m107.72,15.8l1.52-1.52c-1.01-1.28-1.62-2.9-1.62-4.66s.59-3.4,1.67-4.74l.08-.1,1.08.99-.07.09c-.85,1.08-1.29,2.38-1.29,3.76,0,3.08,2.29,5.62,5.26,6.03v-1.25c-2.04-.34-3.7-1.97-4.02-4.05l-.02-.14h1.39s.02.09.02.09c.27,1.72,1.65,2.87,3.44,2.87s3.15-1.22,3.5-2.83h-1.63c-.3.73-1.02,1.25-1.85,1.25-1.1,0-2-.9-2-2s.9-2,2-2c.79,0,1.46.46,1.79,1.12h1.65c-.4-1.53-1.79-2.68-3.45-2.68-1.55,0-3,1.15-3.44,2.72l-.02.09h-1.35l.03-.15c.38-2.03,2-3.57,3.99-3.9v-1.2c-1.06.14-2.05.55-2.91,1.22l-.09.07-.97-1.09.1-.08c1.34-1.07,2.96-1.63,4.68-1.63s3.38.61,4.66,1.62l1.5-1.5h0s.03-.04.03-.04c-1.69-1.36-3.85-2.17-6.2-2.17-5.41,0-9.8,4.32-9.8,9.64,0,2.37.87,4.54,2.31,6.22l.06-.05h0Z"/>
        <path class="cls-1" d="m122.53,3.31l-.06.06h0s-1.48,1.48-1.48,1.48c1.07,1.3,1.71,2.97,1.71,4.78s-.6,3.42-1.69,4.76l-.09.11-.98-1.04.06-.08c.84-1.08,1.29-2.38,1.29-3.75,0-3.09-2.31-5.65-5.3-6.04v1.22c2.29.4,4.04,2.4,4.04,4.8s-1.75,4.4-4.03,4.8v1.25c1.07-.14,2.12-.54,2.96-1.18l.09-.06.97,1-.1.08c-1.34,1.08-3.02,1.67-4.74,1.67-1.81,0-3.48-.64-4.78-1.71l-1.5,1.5-.05.05c1.71,1.42,3.91,2.28,6.32,2.28,5.41,0,9.8-4.32,9.8-9.64,0-2.43-.92-4.64-2.42-6.33Z"/>
      </g>
      <g>
        <path class="cls-1" d="m1.96,6.05v.87c.36-.36.74-.62,1.15-.8s.86-.27,1.33-.27c1.02,0,1.9.39,2.61,1.16s1.08,1.77,1.08,2.98-.37,2.15-1.11,2.93c-.74.79-1.62,1.18-2.63,1.18-.45,0-.87-.08-1.26-.24s-.78-.42-1.16-.79v3.7H0V6.05h1.96Zm2.07,1.62c-.62,0-1.14.21-1.54.64s-.61.98-.61,1.66.2,1.26.61,1.69.92.65,1.54.65,1.11-.22,1.52-.66.62-1,.62-1.67-.2-1.23-.61-1.66-.91-.65-1.53-.65Z"/>
        <path class="cls-1" d="m9.3,6.05h1.69v.99c.18-.39.43-.69.73-.89s.64-.3,1-.3c.26,0,.52.07.8.2l-.61,1.7c-.23-.12-.42-.17-.57-.17-.3,0-.56.19-.77.56s-.31,1.11-.31,2.21v.38s0,3.18,0,3.18h-1.96v-7.85Z"/>
        <path class="cls-1" d="m15.26,2.81c.35,0,.64.13.89.38.25.25.37.55.37.91s-.12.65-.37.9c-.25.25-.54.37-.88.37s-.65-.13-.9-.38-.37-.56-.37-.92.12-.64.37-.89c.25-.25.54-.37.89-.37Zm-.99,3.23h1.97v7.85h-1.97v-7.85Z"/>
        <path class="cls-1" d="m17.72,6.05h1.97v.9c.34-.37.71-.65,1.12-.83s.86-.27,1.35-.27.93.12,1.33.36c.39.24.71.59.95,1.05.31-.46.7-.81,1.15-1.05.46-.24.95-.36,1.49-.36s1.05.13,1.47.39c.42.26.73.6.91,1.02.19.42.28,1.1.28,2.04v4.61h-1.98v-3.98c0-.89-.11-1.49-.33-1.81s-.55-.47-1-.47c-.34,0-.64.1-.91.29s-.47.46-.6.8-.19.88-.19,1.63v3.54h-1.98v-3.8c0-.7-.05-1.21-.16-1.53s-.26-.55-.47-.7c-.21-.15-.46-.23-.75-.23-.33,0-.63.1-.89.29-.27.19-.47.47-.6.82s-.2.9-.2,1.66v3.49h-1.97v-7.85Z"/>
        <path class="cls-1" d="m39.2,10.54h-6.33c.09.56.34,1,.73,1.33s.9.49,1.52.49c.74,0,1.37-.26,1.9-.77l1.66.78c-.41.59-.91,1.02-1.49,1.3s-1.26.42-2.06.42c-1.23,0-2.24-.39-3.01-1.17s-1.16-1.75-1.16-2.92.39-2.19,1.16-2.98,1.74-1.19,2.91-1.19c1.24,0,2.24.4,3.02,1.19s1.16,1.84,1.16,3.14v.38Zm-1.97-1.55c-.13-.44-.39-.79-.77-1.07-.38-.27-.83-.41-1.33-.41-.55,0-1.03.15-1.45.46-.26.19-.5.53-.72,1.02h4.27Z"/>
        <path class="cls-1" d="m52.62,7.63l-1.64.9c-.31-.32-.61-.55-.91-.67s-.65-.19-1.06-.19c-.74,0-1.33.22-1.79.66-.46.44-.68,1-.68,1.69s.22,1.21.66,1.64c.44.42,1.01.63,1.73.63.88,0,1.57-.3,2.06-.9l1.55,1.06c-.84,1.1-2.03,1.64-3.57,1.64-1.38,0-2.46-.41-3.24-1.23s-1.17-1.78-1.17-2.87c0-.76.19-1.46.57-2.1s.91-1.14,1.59-1.51,1.44-.55,2.28-.55c.78,0,1.48.16,2.1.47s1.13.75,1.52,1.32Z"/>
        <path class="cls-1" d="m53.93,6.05h1.69v.99c.18-.39.43-.69.73-.89s.64-.3,1-.3c.26,0,.52.07.8.2l-.61,1.7c-.23-.12-.42-.17-.57-.17-.3,0-.56.19-.77.56s-.31,1.11-.31,2.21v.38s0,3.18,0,3.18h-1.96v-7.85Z"/>
        <path class="cls-1" d="m66.4,10.54h-6.33c.09.56.34,1,.73,1.33s.9.49,1.52.49c.74,0,1.37-.26,1.9-.77l1.66.78c-.41.59-.91,1.02-1.49,1.3s-1.26.42-2.06.42c-1.23,0-2.24-.39-3.01-1.17s-1.16-1.75-1.16-2.92.39-2.19,1.16-2.98,1.74-1.19,2.91-1.19c1.24,0,2.24.4,3.02,1.19s1.16,1.84,1.16,3.14v.38Zm-1.97-1.55c-.13-.44-.39-.79-.77-1.07-.38-.27-.83-.41-1.33-.41-.55,0-1.03.15-1.45.46-.26.19-.5.53-.72,1.02h4.27Z"/>
        <path class="cls-1" d="m73.49,6.05h1.97v7.85h-1.97v-.83c-.38.37-.77.63-1.16.79s-.81.24-1.26.24c-1.01,0-1.89-.39-2.63-1.18-.74-.79-1.11-1.76-1.11-2.93s.36-2.21,1.07-2.98c.72-.77,1.59-1.16,2.61-1.16.47,0,.91.09,1.33.27s.8.45,1.15.8v-.87Zm-2.07,1.62c-.61,0-1.11.22-1.52.65-.4.43-.6.98-.6,1.66s.2,1.24.62,1.67c.41.44.91.66,1.51.66s1.13-.22,1.54-.65c.41-.43.61-.99.61-1.69s-.2-1.24-.61-1.66c-.41-.42-.92-.64-1.55-.64Z"/>
        <path class="cls-1" d="m77.69,3.15h1.97v2.89h1.17v1.7h-1.17v6.16h-1.97v-6.16h-1.01v-1.7h1.01v-2.89Z"/>
        <path class="cls-1" d="m82.66,2.81c.35,0,.64.13.89.38s.37.55.37.91-.12.65-.37.9-.54.37-.88.37-.65-.13-.9-.38-.37-.56-.37-.92.12-.64.37-.89c.24-.25.54-.37.88-.37Zm-.98,3.23h1.97v7.85h-1.97v-7.85Z"/>
        <path class="cls-1" d="m84.59,6.05h2.01l1.98,4.63,1.98-4.63h2l-3.34,7.85h-1.28l-3.35-7.85Z"/>
        <path class="cls-1" d="m100.69,10.54h-6.33c.09.56.34,1,.73,1.33.4.33.9.49,1.52.49.74,0,1.37-.26,1.9-.77l1.66.78c-.41.59-.91,1.02-1.49,1.3s-1.26.42-2.06.42c-1.23,0-2.24-.39-3.01-1.17s-1.16-1.75-1.16-2.92.39-2.19,1.16-2.98c.77-.79,1.74-1.19,2.9-1.19,1.24,0,2.24.4,3.02,1.19s1.16,1.84,1.16,3.14v.38Zm-1.97-1.55c-.13-.44-.39-.79-.77-1.07s-.83-.41-1.33-.41c-.55,0-1.03.15-1.45.46-.26.19-.5.53-.72,1.02h4.27Z"/>
      </g>
    </g>
  </g>
</svg>